<svg id="Calque_1" data-name="Calque 1" xmlns="http://www.w3.org/2000/svg" viewBox="0 0 790.73 137.17"><defs><style>.cls-1{font-size:70px;fill:#8cc63f;font-family:ArialRoundedMTBold, Arial Rounded MT Bold;}.cls-2{letter-spacing:-0.05em;}.cls-3{letter-spacing:0.01em;}.cls-4{fill:#4caf50;}.cls-5{fill:#388e3c;}</style></defs><title>maplanteverte</title><text class="cls-1" transform="translate(0 90.78)">MaPlante<tspan class="cls-2" x="315.82" y="0">V</tspan><tspan x="360.49" y="0">e</tspan><tspan class="cls-3" x="402.09" y="0">r</tspan><tspan x="433.6" y="0">t</tspan><tspan class="cls-2" x="458.38" y="0">e</tspan><tspan x="496.49" y="0">.com</tspan></text><path class="cls-4" d="M730.27,19.81c-8-8.92-23.67-10-34.75-10a2.21,2.21,0,0,0-2.08,2.32c0,12.37.93,29.84,8.93,38.76a18.21,18.21,0,0,0,13.69,5.46,19.46,19.46,0,0,0,14.21-5.46C736.23,44.28,737.32,27.68,730.27,19.81Z" transform="translate(-21.46 -9.85)"/><path class="cls-4" d="M783,19c-11.08,0-26.74,1-34.75,10-7.07,7.88-6,24.46,0,31.12a19.45,19.45,0,0,0,14.22,5.45,18.2,18.2,0,0,0,13.68-5.45c8-8.93,8.93-26.4,8.93-38.76A2.21,2.21,0,0,0,783,19Z" transform="translate(-21.46 -9.85)"/><path class="cls-5" d="M737.12,102.65a2.21,2.21,0,0,1-2.08-2.32c0-49.21-16.18-61.55-22.27-66.2a16.43,16.43,0,0,1-2.08-1.76,2.52,2.52,0,0,1,0-3.28,1.94,1.94,0,0,1,2.89,0,12.13,12.13,0,0,0,1.49,1.21c5.41,4.13,18.14,13.85,22.55,45.73,3.4-16.66,13.49-30.66,27.36-37.94a2.14,2.14,0,0,1,2.91,1,2.3,2.3,0,0,1-.72,2.94l-.11.06-.34.18c-22.8,12-27.59,38.16-27.59,58A2.21,2.21,0,0,1,737.12,102.65Z" transform="translate(-21.46 -9.85)"/></svg>